<svg height="512pt" viewBox="0 0 512 512" width="512pt" xmlns="http://www.w3.org/2000/svg"><path d="m448.359375 127.277344 63.640625-63.636719-63.640625-63.640625-63.640625 63.640625-21.210938-21.214844-84.855468 84.855469-21.210938-21.214844-120.71875 120.71875-74.246094 116.671875-62.476562 62.476563 42.425781 42.425781-42.425781 42.425781 21.214844 21.214844 42.425781-42.425781 42.425781 42.425781 62.472656-62.476562 116.675782-74.246094 120.71875-120.71875-21.210938-21.214844 84.851563-84.851562zm0-84.851563 21.214844 21.214844-42.425781 42.425781-21.214844-21.214844zm-297.25 217.632813 100.832031 100.832031-90.746094 57.75-23.308593-23.3125 53.738281-53.742187-21.214844-21.210938-53.738281 53.738281-23.3125-23.3125zm-108.683594 145.875 31.820313-31.820313 21.214844 21.214844-31.820313 31.820313zm42.425781 42.425781 31.820313-31.820313 21.214844 21.214844-31.820313 31.820313zm190.917969-106.0625-106.066406-106.066406 87.738281-87.738281 106.066406 106.066406zm24.097657-193.804687 21.214843-21.214844 63.640625 63.640625-21.214844 21.214843zm106.066406 21.214843-63.640625-63.640625 21.214843-21.214844 63.640626 63.640626zm0 0"/></svg>