<svg height="512pt" viewBox="0 0 512 512" width="512pt" xmlns="http://www.w3.org/2000/svg"><path d="m427.148438 148.492188 84.851562-84.851563-63.640625-63.640625-84.851563 84.851562c-8.476562-8.472656-19.777343-13.140624-31.820312-13.140624s-23.34375 4.667968-31.820312 13.144531l-130.160157 130.160156c-13.828125 13.828125-16.75 34.484375-8.78125 51.207031l-45.558593 45.558594-31.820313 53.03125-62.332031 62.335938 21.210937 21.210937-42.425781 42.425781 21.214844 21.214844 42.425781-42.425781 21.210937 21.210937 62.335938-62.332031 53.03125-31.820313 45.546875-45.546874c5.976563 2.847656 12.566406 4.351562 19.398437 4.351562 12.042969 0 23.34375-4.667969 31.820313-13.144531l130.164063-130.160157c17.542968-17.546874 17.542968-46.09375 0-63.640624zm21.210937-106.066407 21.214844 21.214844-63.640625 63.640625-21.214844-21.214844zm-299.867187 278.65625 31.820312-31.820312 42.425781 42.425781-31.820312 31.820312zm-18.234376 24.191407 36.46875 36.46875-26.515624 15.910156-25.863282-25.863282zm-66.617187 81.875 31.820313-31.820313 21.210937 21.210937-31.820313 31.820313zm342.292969-236.230469-130.164063 130.164062c-2.808593 2.808594-6.574219 4.355469-10.605469 4.355469-4.027343 0-7.796874-1.546875-10.605468-4.355469l-63.640625-63.640625c-5.847657-5.847656-5.847657-15.363281 0-21.210937l130.164062-130.164063c2.808594-2.808594 6.578125-4.355468 10.605469-4.355468 4.03125 0 7.796875 1.546874 10.609375 4.355468l63.636719 63.640625c5.847656 5.847657 5.847656 15.363281 0 21.210938zm0 0"/></svg>