<svg height="512pt" viewBox="-106 0 512 512" width="512pt" xmlns="http://www.w3.org/2000/svg"><path d="m240 150v-60h-32.292969l-15-90h-85.414062l-15 90h-32.292969v60c-33.085938 0-60 26.914062-60 60v242c0 33.085938 26.914062 60 60 60h180c33.085938 0 60-26.914062 60-60v-242c0-33.085938-26.914062-60-60-60zm-30 0h-45v-30h45zm-77.292969-120h34.585938l10 60h-54.585938zm-42.707031 90h45v30h-45zm180 332c0 16.542969-13.457031 30-30 30h-180c-16.542969 0-30-13.457031-30-30v-242c0-16.542969 13.457031-30 30-30h180c16.542969 0 30 13.457031 30 30zm0 0"/><path d="m156.707031 230.335938c-19.0625-9.53125-40.667969-20.335938-81.707031-20.335938h-15v242h180v-204.5h-15c-33.960938 0-49.867188-7.953125-68.292969-17.164062zm53.292969 191.664062h-120v-181.414062c24.113281 1.992187 37.816406 8.84375 53.292969 16.578124 16.59375 8.300782 35.113281 17.5625 66.707031 19.820313zm0 0"/></svg>